<svg width="36" height="36" viewBox="0 0 36 36" fill="none" xmlns="http://www.w3.org/2000/svg">
<rect x="0.5" y="0.5" width="35" height="35" rx="17.5" stroke="#E17A85" stroke-opacity="0.12"/>
<path d="M21.3333 10.5V13.8333M14.6667 10.5V13.8333M11.3333 17.1667H24.6667M17.1667 20.5H18V23M11.3333 13.8333C11.3333 13.3913 11.5089 12.9674 11.8215 12.6548C12.1341 12.3423 12.558 12.1667 13 12.1667H23C23.442 12.1667 23.866 12.3423 24.1785 12.6548C24.4911 12.9674 24.6667 13.3913 24.6667 13.8333V23.8333C24.6667 24.2754 24.4911 24.6993 24.1785 25.0118C23.866 25.3244 23.442 25.5 23 25.5H13C12.558 25.5 12.1341 25.3244 11.8215 25.0118C11.5089 24.6993 11.3333 24.2754 11.3333 23.8333V13.8333Z" stroke="#E17A85" stroke-width="1.5" stroke-linecap="round" stroke-linejoin="round"/>
</svg>
