<svg width="36" height="36" viewBox="0 0 36 36" fill="none" xmlns="http://www.w3.org/2000/svg">
<rect x="0.5" y="0.5" width="35" height="35" rx="17.5" stroke="#E17A85" stroke-opacity="0.12"/>
<path d="M18 13.8333V18L20.5 20.5M10.5 18C10.5 18.9849 10.694 19.9602 11.0709 20.8701C11.4478 21.7801 12.0003 22.6069 12.6967 23.3033C13.3931 23.9997 14.2199 24.5522 15.1299 24.9291C16.0398 25.306 17.0151 25.5 18 25.5C18.9849 25.5 19.9602 25.306 20.8701 24.9291C21.7801 24.5522 22.6069 23.9997 23.3033 23.3033C23.9997 22.6069 24.5522 21.7801 24.9291 20.8701C25.306 19.9602 25.5 18.9849 25.5 18C25.5 16.0109 24.7098 14.1032 23.3033 12.6967C21.8968 11.2902 19.9891 10.5 18 10.5C16.0109 10.5 14.1032 11.2902 12.6967 12.6967C11.2902 14.1032 10.5 16.0109 10.5 18Z" stroke="#E17A85" stroke-width="1.5" stroke-linecap="round" stroke-linejoin="round"/>
</svg>
