<svg width="40" height="39" viewBox="0 0 40 39" fill="none" xmlns="http://www.w3.org/2000/svg">
<path d="M39.2398 19.3794C39.1939 15.6404 38.0805 11.9924 36.0306 8.86503C33.9807 5.73764 31.0801 3.2611 27.67 1.72709C24.2597 0.193073 20.4822 -0.334526 16.7823 0.20639C13.0824 0.747331 9.61402 2.33425 6.78578 4.78033C3.95751 7.22638 1.88712 10.4297 0.818406 14.013C-0.250281 17.5963 -0.272796 21.4103 0.75356 25.0061C1.77992 28.6018 3.81237 31.8291 6.61157 34.3085C9.41075 36.7878 12.8601 38.4156 16.5534 39V25.0939H11.6483V19.3794H16.5534V15.0383C16.4399 14.029 16.5493 13.0069 16.874 12.0445C17.1987 11.082 17.7307 10.2025 18.4324 9.46804C19.134 8.73359 19.9883 8.16212 20.935 7.79396C21.8817 7.42578 22.8978 7.26987 23.9112 7.33727C25.3822 7.3574 26.8499 7.48859 28.3013 7.72968V12.6348H25.8487C25.4259 12.5815 24.9962 12.6239 24.592 12.7588C24.1876 12.8938 23.8187 13.1179 23.5126 13.4146C23.2065 13.7112 22.9711 14.0729 22.8237 14.4727C22.676 14.8727 22.6204 15.3007 22.6604 15.725V19.4284H28.1051L27.2222 25.1429H22.6849V38.8774C27.32 38.1443 31.5389 35.7741 34.5762 32.1968C37.6135 28.6195 39.268 24.0721 39.2398 19.3794Z" fill="#A4C2D6"/>
</svg>
