<svg width="50" height="49" viewBox="0 0 50 49" fill="none" xmlns="http://www.w3.org/2000/svg">
<path d="M49.6504 24.3484C49.5928 19.6508 48.1938 15.0674 45.6183 11.1381C43.0429 7.20884 39.3984 4.09728 35.114 2.16993C30.8292 0.242578 26.0832 -0.420302 21.4345 0.259311C16.7859 0.938955 12.4283 2.93277 8.87484 6.00605C5.32138 9.0793 2.72012 13.104 1.37737 17.6061C0.0346651 22.1082 0.00637689 26.9002 1.2959 31.4179C2.58543 35.9356 5.13902 39.9905 8.65597 43.1055C12.1729 46.2205 16.5067 48.2657 21.147 49V31.5282H14.9842V24.3484H21.147V18.8943C21.0043 17.6261 21.1418 16.3421 21.5498 15.1328C21.9577 13.9235 22.6261 12.8185 23.5077 11.8957C24.3893 10.973 25.4626 10.255 26.652 9.79241C27.8415 9.32983 29.1181 9.13394 30.3914 9.21862C32.2396 9.24391 34.0835 9.40874 35.9072 9.71165V15.8745H32.8257C32.2945 15.8075 31.7546 15.8608 31.2468 16.0303C30.7386 16.1999 30.2752 16.4815 29.8906 16.8542C29.5061 17.2269 29.2102 17.6813 29.025 18.1837C28.8395 18.6863 28.7696 19.224 28.8198 19.7571V24.4101H35.6606L34.5513 31.5898H28.8506V48.8459C34.6743 47.9249 39.975 44.947 43.791 40.4524C47.6071 35.9578 49.6858 30.2445 49.6504 24.3484Z" fill="#E17A85"/>
</svg>
