<svg width="39" height="39" viewBox="0 0 39 39" fill="none" xmlns="http://www.w3.org/2000/svg">
<path d="M24.768 9.44531H14.232C11.5934 9.44531 9.44531 11.5934 9.44531 14.232V24.768C9.44531 27.4066 11.5934 29.5547 14.232 29.5547H24.768C27.4066 29.5547 29.5547 27.4066 29.5547 24.768V14.232C29.5547 11.5934 27.4066 9.44531 24.768 9.44531ZM19.5 25.7613C16.0479 25.7613 13.2387 22.9521 13.2387 19.5C13.2387 16.0479 16.0479 13.2387 19.5 13.2387C22.9521 13.2387 25.7613 16.0479 25.7613 19.5C25.7613 22.9521 22.9521 25.7613 19.5 25.7613ZM25.932 14.5184C25.1245 14.5184 24.4695 13.8633 24.4695 13.0543C24.4695 12.2469 25.1245 11.5918 25.932 11.5918C26.7409 11.5918 27.396 12.2469 27.396 13.0543C27.396 13.8633 26.7409 14.5184 25.932 14.5184ZM19.5 15.3715C17.224 15.3715 15.3715 17.224 15.3715 19.5C15.3715 21.776 17.224 23.6285 19.5 23.6285C21.776 23.6285 23.6285 21.776 23.6285 19.5C23.6285 17.224 21.776 15.3715 19.5 15.3715ZM19.5 0C8.73082 0 0 8.73082 0 19.5C0 30.2692 8.73082 39 19.5 39C30.2692 39 39 30.2692 39 19.5C39 8.73082 30.2692 0 19.5 0ZM31.6875 24.768C31.6875 28.5827 28.5827 31.6875 24.768 31.6875H14.232C10.4173 31.6875 7.3125 28.5827 7.3125 24.768V14.232C7.3125 10.4173 10.4173 7.3125 14.232 7.3125H24.768C28.5827 7.3125 31.6875 10.4173 31.6875 14.232V24.768Z" fill="#A4C2D6"/>
</svg>
