<svg width="50" height="49" viewBox="0 0 50 49" fill="none" xmlns="http://www.w3.org/2000/svg">
<path d="M31.4679 11.8672H18.2303C14.9151 11.8672 12.2163 14.566 12.2163 17.8812V31.1188C12.2163 34.434 14.9151 37.1328 18.2303 37.1328H31.4679C34.7831 37.1328 37.4819 34.434 37.4819 31.1188V17.8812C37.4819 14.566 34.7831 11.8672 31.4679 11.8672ZM24.8491 32.3668C20.5119 32.3668 16.9823 28.8373 16.9823 24.5C16.9823 20.1627 20.5119 16.6332 24.8491 16.6332C29.1864 16.6332 32.7159 20.1627 32.7159 24.5C32.7159 28.8373 29.1864 32.3668 24.8491 32.3668ZM32.9303 18.241C31.9158 18.241 31.0928 17.418 31.0928 16.4016C31.0928 15.3871 31.9158 14.5641 32.9303 14.5641C33.9467 14.5641 34.7697 15.3871 34.7697 16.4016C34.7697 17.418 33.9467 18.241 32.9303 18.241ZM24.8491 19.3129C21.9895 19.3129 19.662 21.6404 19.662 24.5C19.662 27.3596 21.9895 29.6871 24.8491 29.6871C27.7087 29.6871 30.0362 27.3596 30.0362 24.5C30.0362 21.6404 27.7087 19.3129 24.8491 19.3129ZM24.8491 0C11.3186 0 0.349121 10.9695 0.349121 24.5C0.349121 38.0305 11.3186 49 24.8491 49C38.3796 49 49.3491 38.0305 49.3491 24.5C49.3491 10.9695 38.3796 0 24.8491 0ZM40.1616 31.1188C40.1616 35.9116 36.2608 39.8125 31.4679 39.8125H18.2303C13.4375 39.8125 9.53662 35.9116 9.53662 31.1188V17.8812C9.53662 13.0884 13.4375 9.1875 18.2303 9.1875H31.4679C36.2608 9.1875 40.1616 13.0884 40.1616 17.8812V31.1188Z" fill="#E17A85"/>
</svg>
