<svg width="110" height="25" viewBox="0 0 110 25" fill="none" xmlns="http://www.w3.org/2000/svg">
<path d="M9.77453 11.4486L9.16815 11.2883C9.16815 11.3043 8.63573 13.5813 6.38771 15.2972C4.45027 16.7885 2.33535 16.8045 1.50713 16.7404C1.87687 15.7301 2.61636 14.9123 3.57768 14.4954C4.62774 14.0303 5.76654 14.1426 6.77224 14.784L7.08282 14.2067C5.89965 13.4531 4.56858 13.3248 3.34105 13.87C2.09872 14.4152 1.13739 15.5537 0.797234 16.9328L0.708496 17.2856L1.04866 17.3497C1.09303 17.3657 1.46277 17.4299 2.05435 17.4299C3.16357 17.4299 4.99748 17.1893 6.75745 15.8424C9.16815 13.9822 9.74495 11.5448 9.77453 11.4486Z" fill="#623B2A"/>
<path d="M20.5869 13.9188C19.3149 13.3415 17.8951 13.4538 16.6972 14.2235L17.0078 14.8007C18.043 14.1433 19.2558 14.0471 20.3354 14.5442C21.2672 14.9771 21.9771 15.7789 22.3024 16.741C21.489 16.8052 19.3445 16.8212 17.3923 15.3139C15.1739 13.5981 14.6266 11.321 14.6118 11.305L14.3161 11.3852L14.0203 11.4653C14.0498 11.5616 14.6118 13.999 17.0373 15.8751C18.7825 17.2221 20.6164 17.4626 21.7256 17.4626C22.332 17.4626 22.7166 17.3825 22.7609 17.3825L23.0863 17.3183L23.0123 16.9816C22.7313 15.6186 21.8292 14.48 20.5869 13.9188Z" fill="#623B2A"/>
<path d="M18.1616 11.0806C17.644 10.7919 17.2003 10.391 16.8454 9.87789C16.801 9.81375 16.7566 9.74961 16.7123 9.66943C17.1116 9.34872 17.4813 8.9799 17.8363 8.57901C19.1673 6.99149 19.966 4.92291 19.9956 2.90243V2.53362L19.6554 2.56569C17.925 2.72604 16.5496 3.75232 15.8692 5.38794C15.322 6.71889 15.3368 8.21019 15.884 9.477C14.9079 10.1505 13.7395 10.5835 12.4233 10.6797C12.3345 10.6797 12.2606 10.6957 12.1718 10.6957V7.74516C12.1718 7.74516 13.8283 5.98126 13.8431 3.84853C13.8579 1.92426 12.8078 0.641421 12.1866 0.0481065L12.1275 0H11.6098L11.5507 0.0481065C10.7816 0.785741 9.84988 2.05255 9.89425 3.8806C9.93862 5.96522 11.1366 7.29617 11.5359 7.74516V10.6797C10.1457 10.6155 8.91813 10.1665 7.89765 9.46097C8.44487 8.19416 8.45965 6.70285 7.91244 5.3719C7.27649 3.75232 5.90105 2.72604 4.17067 2.56569L3.83051 2.53362V2.90243C3.86009 4.92291 4.65873 6.99149 5.98979 8.57901C6.32995 8.9799 6.71448 9.34872 7.1138 9.66943C7.06943 9.73357 7.02506 9.79771 6.98069 9.87789C6.62574 10.391 6.18206 10.7919 5.66442 11.0806C3.47556 7.4886 0.310582 9.58925 0.266213 9.60529L0 9.78168L0.177475 10.0703C1.00569 11.3852 2.30718 12.171 3.75656 12.203C3.78614 12.203 3.83051 12.203 3.86009 12.203C5.27989 12.203 6.62574 11.4814 7.46875 10.2627C7.51312 10.1826 7.57228 10.1184 7.61665 10.0382C8.78503 10.824 10.1309 11.273 11.5655 11.3371V15.4102C9.90904 15.5064 7.70539 16.2761 6.1229 18.2003C4.54041 20.1406 4.24462 22.2734 4.22983 22.3696L4.18546 22.7224L4.51083 22.7544C4.62915 22.7705 4.76225 22.7705 4.88057 22.7705C6.07853 22.7705 7.2617 22.1932 8.07512 21.199C8.97729 20.0925 9.33224 18.6012 9.05124 17.126L8.44487 17.2703C8.69629 18.5371 8.38571 19.8039 7.61665 20.766C6.92154 21.6159 5.93063 22.097 4.91015 22.113C5.05805 21.4555 5.50173 19.9963 6.58138 18.6654C8.03076 16.9015 10.0421 16.1799 11.5655 16.0997V24.1335H12.1866V16.1157C13.71 16.1959 15.7509 16.9015 17.2003 18.6814C18.28 20.0123 18.7236 21.4716 18.8715 22.129C17.8511 22.113 16.8602 21.6319 16.165 20.7821C15.3812 19.836 15.0854 18.5531 15.3368 17.2863L14.7304 17.142C14.4347 18.6173 14.7896 20.1086 15.7066 21.215C16.52 22.2092 17.7032 22.7865 18.9011 22.7865C19.0194 22.7865 19.1525 22.7865 19.2709 22.7705L19.5962 22.7384L19.5519 22.3856C19.5371 22.2894 19.2413 20.1567 17.6588 18.2164C16.0615 16.26 13.8431 15.5064 12.1718 15.4102V11.3371C12.2162 11.3371 12.2458 11.3371 12.2754 11.3371C13.6952 11.273 15.0262 10.824 16.1798 10.0382C16.2242 10.1184 16.2834 10.1986 16.3277 10.2627C17.1707 11.4814 18.5166 12.203 19.9364 12.203C19.966 12.203 20.0103 12.203 20.0399 12.203C21.4745 12.171 22.776 11.3852 23.619 10.0703L23.7965 9.78168L23.5303 9.60529C23.5155 9.58925 20.3505 7.50463 18.1616 11.0806ZM3.78614 11.5456C2.66213 11.5135 1.62686 10.9683 0.916956 10.0062C1.65644 9.63736 3.59387 8.99594 5.10241 11.3371C4.67352 11.4814 4.22983 11.5616 3.78614 11.5456ZM7.40959 9.07611C5.66442 7.63292 4.61436 5.43605 4.46646 3.27125C5.79753 3.49575 6.84759 4.36167 7.38001 5.64451C7.83849 6.78303 7.85328 8.01777 7.40959 9.07611ZM11.8908 7.16788C11.4619 6.67078 10.5746 5.53226 10.545 3.8806C10.5154 2.38929 11.2401 1.33095 11.8908 0.657457C12.4381 1.2187 13.2515 2.30912 13.2367 3.86456C13.2367 5.51622 12.3345 6.65475 11.8908 7.16788ZM16.4165 9.09215C15.9876 8.0338 15.9876 6.78303 16.446 5.67658C16.9785 4.3777 18.0285 3.52782 19.3596 3.28728C19.2117 5.45208 18.1616 7.64895 16.4165 9.09215ZM20.0547 11.5616C19.611 11.5777 19.1673 11.4975 18.7384 11.3532C20.2322 9.01197 22.1844 9.65339 22.9239 10.0222C22.1992 10.9683 21.1787 11.5296 20.0547 11.5616Z" fill="#623B2A"/>
<path d="M34.7122 9.47681C34.372 9.05989 33.9431 8.70711 33.4107 8.4345C32.893 8.1619 32.2719 8.01758 31.562 8.01758C30.8521 8.01758 30.2457 8.14586 29.7429 8.41847C29.24 8.69107 28.8259 9.02782 28.4857 9.44474C28.1604 9.86166 27.9237 10.3107 27.761 10.8078C27.6132 11.3049 27.5244 11.7699 27.5244 12.2029C27.5244 12.6358 27.5984 13.1008 27.761 13.5819C27.9089 14.079 28.1604 14.528 28.4857 14.9449C28.8111 15.3619 29.2252 15.7146 29.7429 15.9872C30.2457 16.2598 30.8521 16.4042 31.562 16.4042C32.0352 16.4042 32.4789 16.34 32.8635 16.2117C33.248 16.0835 33.6029 15.9071 33.9135 15.6986C34.2241 15.4901 34.4903 15.2336 34.727 14.9449C34.9488 14.6563 35.1411 14.3677 35.289 14.0469C35.4369 13.7262 35.5404 13.4216 35.6143 13.1008C35.6883 12.7801 35.7326 12.4755 35.7326 12.2029C35.7326 11.7699 35.6439 11.3049 35.4812 10.8238C35.3037 10.3427 35.0523 9.89374 34.7122 9.47681ZM34.4164 13.7102C34.2537 14.1592 34.0318 14.544 33.7508 14.8808C33.4698 15.2015 33.1445 15.4581 32.7599 15.6345C32.3902 15.8108 31.9909 15.9071 31.562 15.9071C31.1331 15.9071 30.7338 15.8108 30.3788 15.6345C30.0091 15.4581 29.6985 15.2015 29.4323 14.8808C29.1661 14.5601 28.959 14.1752 28.7963 13.7102C28.6484 13.2612 28.5597 12.7641 28.5597 12.2189C28.5597 11.6737 28.6336 11.1766 28.7963 10.7276C28.9442 10.2786 29.1661 9.89374 29.4323 9.55699C29.6985 9.23628 30.0091 8.97971 30.3788 8.80332C30.7485 8.62693 31.1331 8.53071 31.562 8.53071C31.9761 8.53071 32.3754 8.62693 32.7599 8.80332C33.1297 8.97971 33.455 9.23628 33.7508 9.55699C34.0318 9.8777 34.2537 10.2626 34.4164 10.7276C34.5791 11.1766 34.6678 11.6737 34.6678 12.2189C34.6678 12.7641 34.5791 13.2612 34.4164 13.7102Z" fill="#623B2A"/>
<path d="M50.1985 9.47681C49.8583 9.05989 49.4294 8.70711 48.897 8.4345C48.3794 8.1619 47.7582 8.01758 47.0483 8.01758C46.3384 8.01758 45.732 8.14586 45.2292 8.41847C44.7263 8.69107 44.3122 9.02782 43.9721 9.44474C43.6467 9.86166 43.4101 10.3107 43.2474 10.8078C43.0995 11.3049 43.0107 11.7699 43.0107 12.2029C43.0107 12.6358 43.0847 13.1008 43.2474 13.5819C43.3953 14.079 43.6467 14.528 43.9721 14.9449C44.2974 15.3619 44.7115 15.7146 45.2292 15.9872C45.732 16.2598 46.3384 16.4042 47.0483 16.4042C47.5216 16.4042 47.9653 16.34 48.3498 16.2117C48.7343 16.0835 49.0893 15.9071 49.3999 15.6986C49.7104 15.4901 49.9766 15.2336 50.2133 14.9449C50.4351 14.6563 50.6274 14.3677 50.7753 14.0469C50.9232 13.7262 51.0267 13.4216 51.1007 13.1008C51.1746 12.7801 51.219 12.4755 51.219 12.2029C51.219 11.7699 51.1302 11.3049 50.9676 10.8238C50.7901 10.3427 50.5387 9.89374 50.1985 9.47681ZM49.9027 13.7102C49.74 14.1592 49.5182 14.544 49.2372 14.8808C48.9562 15.2015 48.6308 15.4581 48.2463 15.6345C47.8765 15.8108 47.4772 15.9071 47.0483 15.9071C46.6194 15.9071 46.2201 15.8108 45.8651 15.6345C45.4954 15.4581 45.1848 15.2015 44.9186 14.8808C44.6524 14.5601 44.4453 14.1752 44.2826 13.7102C44.1348 13.2612 44.046 12.7641 44.046 12.2189C44.046 11.6737 44.12 11.1766 44.2826 10.7276C44.4305 10.2786 44.6524 9.89374 44.9186 9.55699C45.1848 9.23628 45.4954 8.97971 45.8651 8.80332C46.2349 8.62693 46.6194 8.53071 47.0483 8.53071C47.4624 8.53071 47.8617 8.62693 48.2463 8.80332C48.616 8.97971 48.9414 9.23628 49.2372 9.55699C49.5182 9.8777 49.74 10.2626 49.9027 10.7276C50.0654 11.1766 50.1541 11.6737 50.1541 12.2189C50.1541 12.7641 50.0654 13.2612 49.9027 13.7102Z" fill="#623B2A"/>
<path d="M53.4507 8.16211H52.4746V16.2761H57.3108V15.6347H53.4507V8.16211Z" fill="#623B2A"/>
<path d="M59.7635 8.16211H58.7874V16.2761H59.7635V8.16211Z" fill="#623B2A"/>
<path d="M65.9306 15.8905C65.3686 15.8905 64.8806 15.7782 64.4517 15.5697C64.0228 15.3613 63.6678 15.0887 63.3868 14.7359C63.1058 14.3831 62.884 13.9822 62.7361 13.5332C62.5882 13.0842 62.5142 12.6032 62.5142 12.1061C62.5142 11.5769 62.5882 11.0958 62.7509 10.6629C62.8988 10.2299 63.1206 9.84506 63.4016 9.54039C63.6826 9.21968 64.008 8.97914 64.3925 8.80275C64.777 8.62636 65.1912 8.53015 65.6348 8.53015C65.9454 8.53015 66.2264 8.56222 66.4779 8.6424C66.7293 8.72258 66.9511 8.81879 67.1582 8.94707C67.3504 9.07536 67.5131 9.21968 67.6462 9.364C67.7645 9.52435 67.8533 9.68471 67.9124 9.84506H68.7111C68.6076 9.58849 68.4597 9.33193 68.297 9.10743C68.1343 8.88293 67.9272 8.6905 67.6758 8.53015C67.4244 8.36979 67.1286 8.24151 66.8032 8.1453C66.4631 8.04908 66.0933 8.00098 65.6644 8.00098C65.0433 8.00098 64.4813 8.09719 63.9636 8.28962C63.4608 8.48204 63.0171 8.75465 62.6473 9.12346C62.2776 9.47625 61.9966 9.9092 61.8043 10.4223C61.5973 10.9355 61.5085 11.4967 61.5085 12.1221C61.5085 12.6673 61.5825 13.1965 61.7452 13.7096C61.9079 14.2228 62.1593 14.6878 62.4847 15.0726C62.8248 15.4735 63.2537 15.7942 63.7714 16.0348C64.289 16.2753 64.9102 16.4036 65.6348 16.4036C66.0933 16.4036 66.4926 16.3555 66.8624 16.2593C67.2173 16.1631 67.5427 16.0508 67.8089 15.9225C68.0751 15.7942 68.297 15.6499 68.4745 15.4896C68.6519 15.3292 68.785 15.2009 68.8738 15.0887L68.5484 14.768C67.7793 15.5216 66.9215 15.8905 65.9306 15.8905Z" fill="#623B2A"/>
<path d="M69.7888 16.2761H74.6102V15.6347H70.7501V12.2351H74.063V11.706H70.7501V8.80353H74.6102V8.16211H69.7888V16.2761Z" fill="#623B2A"/>
<path d="M83.3689 15.987C82.8069 15.987 82.3188 15.8748 81.8899 15.6663C81.461 15.4578 81.1061 15.1692 80.8103 14.8324C80.5293 14.4797 80.3075 14.0788 80.1596 13.6137C80.0117 13.1487 79.9377 12.6837 79.9377 12.1866C79.9377 11.6574 80.0117 11.1763 80.1744 10.7434C80.3222 10.3104 80.5441 9.92557 80.8251 9.60486C81.1061 9.28415 81.4315 9.04361 81.816 8.86722C82.2005 8.69083 82.6146 8.59462 83.0731 8.59462C83.3837 8.59462 83.6647 8.62669 83.9161 8.70687C84.1675 8.78705 84.3894 8.88326 84.5964 9.01154C84.7887 9.13983 84.9514 9.28415 85.0845 9.4445C85.2028 9.60486 85.2916 9.76521 85.3507 9.92557H86.1493C86.0458 9.669 85.8979 9.41243 85.7352 9.18793C85.5726 8.96344 85.3507 8.77101 85.1141 8.61065C84.8627 8.4503 84.5669 8.32202 84.2267 8.2258C83.8865 8.12959 83.502 8.08148 83.0731 8.08148C82.4519 8.08148 81.8752 8.17769 81.3723 8.37012C80.8547 8.56255 80.4258 8.83515 80.056 9.20397C79.6863 9.57279 79.4053 10.0057 79.213 10.5028C79.006 11.016 78.9172 11.5772 78.9172 12.2026C78.9172 12.7478 78.9912 13.277 79.1539 13.7901C79.3166 14.3033 79.568 14.7683 79.8933 15.1692C80.2335 15.5701 80.6624 15.8908 81.18 16.1313C81.6977 16.3719 82.3188 16.5001 83.0435 16.5001C83.502 16.5001 83.9161 16.452 84.2711 16.3558C84.626 16.2596 84.9514 16.1474 85.2176 16.0191C85.4838 15.8908 85.7057 15.7304 85.8831 15.5861C86.0606 15.4258 86.1937 15.2975 86.2972 15.1852L85.9719 14.8645C85.2324 15.6021 84.3598 15.987 83.3689 15.987Z" fill="#623B2A"/>
<path d="M88.5467 8.21069H87.5706V16.3567H88.5467V8.21069Z" fill="#623B2A"/>
<path d="M92.6876 8.21069L89.5078 16.3567H89.9959L90.9424 13.9514H94.6546L95.6899 16.3567H96.7251L93.22 8.21069H92.6876ZM91.1643 13.4383L92.7172 9.50957H92.7615L94.4475 13.4383H91.1643Z" fill="#623B2A"/>
<path d="M98.5602 12.4601L99.5955 11.7064L99.3736 11.3537L98.5602 11.963V8.21069H97.5841V12.6846L96.5784 13.4383L96.8002 13.775L97.5841 13.1817V16.3728H102.45V15.7314H98.5602V12.4601Z" fill="#623B2A"/>
<path d="M106.264 8.21075H105.732L102.552 16.3568H103.04L103.987 13.9515H107.699L108.734 16.3568H109.769L106.264 8.21075ZM104.179 13.4383L105.732 9.50963H105.776L107.462 13.4383H104.179Z" fill="#623B2A"/>
<path d="M39.7944 11.3051L42.5157 8.16211H41.9833L37.9605 12.7322V8.16211H36.9844V16.2921H37.9605V13.4378L39.1732 12.0267C39.1732 12.0267 40.2529 12.8124 41.0959 14.0792C41.9389 15.346 42.0276 16.2921 42.0276 16.2921H43.1368C43.1368 16.2921 42.8115 14.9932 41.9981 13.7104C41.1107 12.3153 39.7944 11.3051 39.7944 11.3051Z" fill="#623B2A"/>
</svg>
