<svg width="39" height="39" viewBox="0 0 39 39" fill="none" xmlns="http://www.w3.org/2000/svg">
<g clip-path="url(#clip0_1_741)">
<path fill-rule="evenodd" clip-rule="evenodd" d="M31.0343 17.2872C24.7494 13.5549 14.3812 13.2112 8.37914 15.0325C7.41584 15.3231 6.39794 14.7809 6.10544 13.8157C5.81294 12.8524 6.357 11.8344 7.3203 11.5419C14.2096 9.44959 25.6601 9.85308 32.8965 14.1489C33.7623 14.6637 34.047 15.7835 33.5322 16.6493C33.0213 17.5151 31.8981 17.802 31.0343 17.2872ZM30.8295 22.8154C30.3888 23.531 29.4528 23.755 28.7372 23.3162C23.4975 20.0948 15.5064 19.1626 9.30735 21.0444C8.50201 21.2862 7.65376 20.8337 7.41001 20.0303C7.16821 19.2269 7.6206 18.3784 8.424 18.1346C15.5044 15.9857 24.3087 17.0272 30.3284 20.7264C31.044 21.1651 31.2682 22.1017 30.8295 22.8154ZM28.4427 28.1246C28.0917 28.6979 27.3448 28.8793 26.7715 28.5283C22.1929 25.73 16.4288 25.0985 9.6408 26.6487C8.98755 26.7989 8.3343 26.3889 8.1861 25.7337C8.03595 25.0805 8.4435 24.4299 9.10065 24.2798C16.5282 22.5813 22.8988 23.3121 28.039 26.4535C28.6123 26.8045 28.7937 27.5513 28.4427 28.1246ZM19.5 0C8.73015 0 0 8.73015 0 19.5C0 30.2698 8.73015 39 19.5 39C30.2698 39 39 30.2698 39 19.5C39 8.7321 30.2698 0 19.5 0Z" fill="#A4C2D6"/>
</g>
<defs>
<clipPath id="clip0_1_741">
<rect width="39" height="39" fill="white"/>
</clipPath>
</defs>
</svg>
