<svg width="50" height="49" viewBox="0 0 50 49" fill="none" xmlns="http://www.w3.org/2000/svg">
<g clip-path="url(#clip0_1_454)">
<path fill-rule="evenodd" clip-rule="evenodd" d="M39.3409 21.7198C31.4445 17.0305 18.4179 16.5987 10.8768 18.887C9.66646 19.2521 8.38756 18.5709 8.02006 17.3582C7.65256 16.1479 8.33612 14.8689 9.54642 14.5014C18.2023 11.8726 32.5887 12.3795 41.6806 17.7769C42.7684 18.4237 43.1261 19.8305 42.4793 20.9183C41.8374 22.0061 40.4262 22.3666 39.3409 21.7198ZM39.0836 28.6655C38.5299 29.5646 37.3539 29.846 36.4548 29.2947C29.8716 25.2473 19.8315 24.0761 12.043 26.4404C11.0311 26.7442 9.96538 26.1757 9.65913 25.1663C9.35533 24.1569 9.92372 23.0908 10.9331 22.7845C19.8291 20.0846 30.8908 21.3932 38.454 26.0408C39.3531 26.5921 39.6349 27.7688 39.0836 28.6655ZM36.0848 35.336C35.6438 36.0563 34.7055 36.2842 33.9852 35.8432C28.2326 32.3275 20.9904 31.534 12.4619 33.4817C11.6412 33.6704 10.8204 33.1553 10.6342 32.3321C10.4456 31.5114 10.9576 30.694 11.7833 30.5054C21.1153 28.3714 29.1195 29.2895 35.5777 33.2365C36.298 33.6775 36.5258 34.6157 36.0848 35.336ZM24.8491 0C11.3178 0 0.349121 10.9687 0.349121 24.5C0.349121 38.0313 11.3178 49 24.8491 49C38.3805 49 49.3491 38.0313 49.3491 24.5C49.3491 10.9711 38.3805 0 24.8491 0Z" fill="#E17A85"/>
</g>
<defs>
<clipPath id="clip0_1_454">
<rect width="49" height="49" fill="white" transform="translate(0.349121)"/>
</clipPath>
</defs>
</svg>
