<svg width="50" height="49" viewBox="0 0 50 49" fill="none" xmlns="http://www.w3.org/2000/svg">
<g clip-path="url(#clip0_1_459)">
<path d="M21.5862 29.2184L29.6061 24.5098L21.5862 19.8012V29.2184Z" fill="#E17A85"/>
<path d="M24.8494 0C11.3169 0 0.349365 10.9676 0.349365 24.5C0.349365 38.0324 11.3169 49 24.8494 49C38.3818 49 49.3494 38.0324 49.3494 24.5C49.3494 10.9676 38.3818 0 24.8494 0ZM37.0994 28.8832C37.0994 33.1037 32.8789 33.1037 32.8789 33.1037H16.8199C12.5994 33.1037 12.5994 28.8832 12.5994 28.8832V20.1264C12.5994 15.9059 16.8199 15.9059 16.8199 15.9059H32.8789C37.0994 15.9059 37.0994 20.1264 37.0994 20.1264V28.8832Z" fill="#E17A85"/>
</g>
<defs>
<clipPath id="clip0_1_459">
<rect width="49" height="49" fill="white" transform="translate(0.349121)"/>
</clipPath>
</defs>
</svg>
