<svg width="39" height="39" viewBox="0 0 39 39" fill="none" xmlns="http://www.w3.org/2000/svg">
<g clip-path="url(#clip0_1_746)">
<path d="M16.903 23.2554L23.2862 19.5078L16.903 15.7601V23.2554Z" fill="#A4C2D6"/>
<path d="M19.5002 0C8.72954 0 0.000244141 8.7293 0.000244141 19.5C0.000244141 30.2707 8.72954 39 19.5002 39C30.2709 39 39.0002 30.2707 39.0002 19.5C39.0002 8.7293 30.2709 0 19.5002 0ZM29.2502 22.9887C29.2502 26.3479 25.8911 26.3479 25.8911 26.3479H13.1094C9.75025 26.3479 9.75024 22.9887 9.75024 22.9887V16.0189C9.75024 12.6598 13.1094 12.6598 13.1094 12.6598H25.8911C29.2502 12.6598 29.2502 16.0189 29.2502 16.0189V22.9887Z" fill="#A4C2D6"/>
</g>
<defs>
<clipPath id="clip0_1_746">
<rect width="39" height="39" fill="white"/>
</clipPath>
</defs>
</svg>
